<?xml version="1.0" standalone="no"?>
<!DOCTYPE svg PUBLIC "-//W3C//DTD SVG 1.1//EN" "http://www.w3.org/Graphics/SVG/1.1/DTD/svg11.dtd">
<!--Generator: Xara Designer (www.xara.com), SVG filter version: 6.0.0.4-->
<svg stroke-width="0.501" stroke-linejoin="bevel" fill-rule="evenodd" xmlns:xlink="http://www.w3.org/1999/xlink" xmlns="http://www.w3.org/2000/svg" version="1.1" overflow="visible" width="600pt" height="450pt" viewBox="0 0 600 450">
 <defs>
	</defs>
 <g id="Document" fill="none" stroke="black" font-family="Times New Roman" font-size="16" transform="scale(1 -1)">
  <g id="Spread" transform="translate(0 -450)">
   <g id="Layer 1">
    <path d="M 310.161,284.521 L 310.161,257.269 L 304.426,257.269 L 304.426,284.521 L 291.401,284.521 L 291.401,290.255 L 323.147,290.255 L 323.147,284.521 L 310.161,284.521 Z" stroke-linecap="round" stroke="none" fill-rule="nonzero" stroke-linejoin="round" stroke-width="1.718" fill="#000000" marker-start="none" marker-end="none" stroke-miterlimit="79.8403193612775"/>
    <path d="M 354.896,276.723 L 354.896,290.255 L 360.628,290.255 L 360.628,257.269 L 354.896,257.269 L 354.896,270.988 L 335.49,270.988 L 335.49,276.723 L 354.896,276.723 Z M 332.92,257.269 L 327.185,257.269 L 327.185,290.255 L 332.92,290.255 L 332.92,257.269 Z" stroke-linecap="round" stroke="none" fill-rule="nonzero" stroke-linejoin="round" stroke-width="1.718" fill="#000000" marker-start="none" marker-end="none" stroke-miterlimit="79.8403193612775"/>
    <path d="M 393.386,276.859 L 393.386,271.124 L 374.532,271.124 L 374.532,276.859 L 393.386,276.859 Z M 372.098,263.003 L 394.856,263.003 L 394.856,257.269 L 366.366,257.269 L 366.366,290.255 L 394.856,290.255 L 394.856,284.521 L 372.098,284.521 L 372.098,263.003 Z" stroke-linecap="round" stroke="none" fill-rule="nonzero" stroke-linejoin="round" stroke-width="1.718" fill="#000000" marker-start="none" marker-end="none" stroke-miterlimit="79.8403193612775"/>
    <path d="M 317.419,212.76 L 292.279,212.76 L 292.279,218.495 L 317.419,218.495 C 319.318,218.495 320.83,218.968 321.963,219.918 C 323.002,220.804 323.523,221.86 323.523,223.083 C 323.523,224.307 323.016,225.333 322.008,226.157 C 320.876,227.074 319.349,227.533 317.419,227.533 L 301.822,227.533 C 298.58,227.533 296.011,228.482 294.113,230.376 C 292.4,232.09 291.545,234.186 291.545,236.665 C 291.545,239.108 292.4,241.191 294.113,242.901 C 296.011,244.799 298.58,245.747 301.82,245.747 L 326.732,245.747 L 326.732,240.012 L 301.818,240.012 C 300.594,240.012 299.63,239.675 298.929,239.001 C 298.226,238.329 297.872,237.533 297.872,236.616 C 297.872,235.699 298.195,234.934 298.838,234.321 C 299.571,233.619 300.565,233.268 301.82,233.268 L 317.419,233.268 C 320.938,233.268 323.754,232.198 325.862,230.057 C 327.76,228.1 328.71,225.729 328.706,222.945 C 328.71,220.16 327.775,217.822 325.908,215.927 C 323.829,213.817 321,212.76 317.419,212.76 Z" stroke-linecap="round" stroke="none" fill-rule="nonzero" stroke-linejoin="round" stroke-width="1.718" fill="#000000" marker-start="none" marker-end="none" stroke-miterlimit="79.8403193612775"/>
    <path d="M 363.096,222.022 L 347.459,222.022 L 350.948,227.758 L 359.671,227.758 L 353.935,237.257 L 339.056,212.805 L 331.678,212.805 L 349.568,242.626 C 350.149,243.575 350.896,244.354 351.817,244.963 C 352.61,245.515 353.315,245.804 353.927,245.835 C 354.598,245.897 355.349,245.668 356.173,245.147 C 357.122,244.535 357.917,243.693 358.561,242.623 L 376.087,212.805 L 368.681,212.805 L 363.096,222.022 Z" stroke-linecap="round" stroke="none" fill-rule="nonzero" stroke-linejoin="round" stroke-width="1.718" fill="#000000" marker-start="none" marker-end="none" stroke-miterlimit="79.8403193612775"/>
    <path d="M 417.459,212.76 L 408.974,212.76 L 399.754,222.022 L 387.364,222.022 L 387.364,227.758 L 402.775,227.758 C 405.466,227.758 407.513,228.414 408.918,229.731 C 410.141,230.923 410.709,232.394 410.617,234.134 C 410.402,238.052 407.787,240.012 402.775,240.012 L 383.972,240.012 L 383.972,212.76 L 378.236,212.76 L 378.236,245.747 L 401.905,245.747 C 406.89,245.747 410.669,244.538 413.237,242.12 C 415.407,240.1 416.539,237.437 416.63,234.134 C 416.724,231.532 416.035,229.238 414.566,227.25 C 412.942,225.047 410.585,223.531 407.496,222.708 L 417.459,212.76 Z" stroke-linecap="round" stroke="none" fill-rule="nonzero" stroke-linejoin="round" stroke-width="1.718" fill="#000000" marker-start="none" marker-end="none" stroke-miterlimit="79.8403193612775"/>
    <path d="M 438.661,240.012 C 435.359,240.012 432.684,238.925 430.633,236.755 C 428.828,234.826 427.865,232.442 427.744,229.597 C 427.651,226.598 428.506,224.061 430.313,221.982 C 432.329,219.657 435.113,218.495 438.661,218.495 L 447.884,218.495 C 451.433,218.495 454.214,219.657 456.233,221.982 C 458.037,224.061 458.878,226.598 458.757,229.597 C 458.665,232.442 457.7,234.826 455.865,236.755 C 453.849,238.925 451.185,240.012 447.884,240.012 L 438.661,240.012 Z M 438.661,212.76 C 433.521,212.76 429.395,214.519 426.274,218.036 C 423.458,221.248 422.054,225.101 422.054,229.597 C 422.054,234.033 423.399,237.732 426.09,240.7 C 429.148,244.065 433.34,245.747 438.661,245.747 L 447.884,245.747 C 453.206,245.747 457.38,244.065 460.408,240.7 C 463.129,237.732 464.493,234.033 464.493,229.597 C 464.493,225.101 463.084,221.248 460.269,218.036 C 457.152,214.519 453.021,212.76 447.884,212.76 L 438.661,212.76 Z" stroke-linecap="round" stroke="none" fill-rule="nonzero" stroke-linejoin="round" stroke-width="1.718" fill="#000000" marker-start="none" marker-end="none" stroke-miterlimit="79.8403193612775"/>
    <path d="M 309.253,168.252 C 304.114,168.252 299.985,170.01 296.863,173.528 C 294.049,176.74 292.643,180.591 292.643,185.089 C 292.643,189.525 293.989,193.224 296.679,196.191 C 299.738,199.557 303.927,201.239 309.249,201.239 L 327.831,201.239 L 327.831,195.504 L 309.253,195.504 C 305.947,195.504 303.27,194.415 301.223,192.246 C 299.419,190.318 298.455,187.933 298.334,185.089 C 298.24,182.09 299.095,179.553 300.903,177.474 C 302.918,175.149 305.703,173.987 309.253,173.987 L 324.441,173.987 L 324.441,181.19 L 308.791,181.19 L 308.791,186.464 L 330.176,186.464 L 330.176,168.252 L 309.253,168.252 Z" stroke-linecap="round" stroke="none" fill-rule="nonzero" stroke-linejoin="round" stroke-width="1.718" fill="#000000" marker-start="none" marker-end="none" stroke-miterlimit="79.8403193612775"/>
    <path d="M 374.069,168.252 L 365.584,168.252 L 356.364,177.513 L 343.975,177.513 L 343.975,183.248 L 359.385,183.248 C 362.076,183.248 364.123,183.906 365.529,185.223 C 366.752,186.414 367.318,187.884 367.228,189.627 C 367.012,193.543 364.399,195.504 359.385,195.504 L 340.582,195.504 L 340.582,168.252 L 334.846,168.252 L 334.846,201.239 L 358.516,201.239 C 363.5,201.239 367.279,200.03 369.847,197.61 C 372.017,195.592 373.15,192.928 373.24,189.627 C 373.334,187.023 372.645,184.729 371.176,182.742 C 369.552,180.537 367.197,179.023 364.106,178.199 L 374.069,168.252 Z" stroke-linecap="round" stroke="none" fill-rule="nonzero" stroke-linejoin="round" stroke-width="1.718" fill="#000000" marker-start="none" marker-end="none" stroke-miterlimit="79.8403193612775"/>
    <path d="M 395.273,195.504 C 391.969,195.504 389.294,194.415 387.243,192.246 C 385.44,190.318 384.475,187.933 384.354,185.089 C 384.261,182.09 385.116,179.553 386.923,177.474 C 388.939,175.149 391.723,173.987 395.273,173.987 L 404.494,173.987 C 408.043,173.987 410.824,175.149 412.843,177.474 C 414.647,179.553 415.488,182.09 415.367,185.089 C 415.275,187.933 414.31,190.318 412.475,192.246 C 410.459,194.415 407.796,195.504 404.494,195.504 L 395.273,195.504 Z M 395.273,168.252 C 390.131,168.252 386.005,170.01 382.884,173.528 C 380.07,176.74 378.664,180.591 378.664,185.089 C 378.664,189.525 380.009,193.224 382.7,196.191 C 385.758,199.557 389.951,201.239 395.273,201.239 L 404.494,201.239 C 409.816,201.239 413.991,199.557 417.018,196.191 C 419.74,193.224 421.103,189.525 421.103,185.089 C 421.103,180.591 419.694,176.74 416.88,173.528 C 413.761,170.01 409.631,168.252 404.494,168.252 L 395.273,168.252 Z" stroke-linecap="round" stroke="none" fill-rule="nonzero" stroke-linejoin="round" stroke-width="1.718" fill="#000000" marker-start="none" marker-end="none" stroke-miterlimit="79.8403193612775"/>
    <path d="M 445.61,168.252 L 443.635,168.252 C 438.07,168.252 433.881,169.337 431.065,171.509 C 427.947,173.924 426.388,177.793 426.388,183.115 L 426.388,201.239 L 432.123,201.239 L 432.123,183.115 C 432.123,179.629 433.193,177.168 435.333,175.728 C 437.107,174.568 439.874,173.987 443.635,173.987 L 445.61,173.987 C 449.371,173.987 452.138,174.568 453.911,175.728 C 456.052,177.168 457.122,179.629 457.122,183.115 L 457.122,201.239 L 462.855,201.239 L 462.855,183.115 C 462.855,177.793 461.281,173.924 458.131,171.509 C 455.35,169.337 451.175,168.252 445.61,168.252 Z" stroke-linecap="round" stroke="none" fill-rule="nonzero" stroke-linejoin="round" stroke-width="1.718" fill="#000000" marker-start="none" marker-end="none" stroke-miterlimit="79.8403193612775"/>
    <path d="M 474.966,168.252 L 469.231,168.252 L 469.231,201.239 L 492.902,201.239 C 497.032,201.239 500.32,199.998 502.763,197.52 C 504.967,195.288 506.069,192.564 506.069,189.352 C 506.069,186.14 504.967,183.419 502.763,181.187 C 500.32,178.736 497.014,177.513 492.857,177.513 L 478.358,177.513 L 478.358,183.248 L 493.77,183.248 C 495.879,183.248 497.561,183.892 498.816,185.177 C 499.946,186.339 500.512,187.746 500.512,189.397 C 500.512,191.051 499.946,192.458 498.816,193.62 C 497.592,194.874 495.91,195.504 493.77,195.504 L 474.966,195.504 L 474.966,168.252 Z" stroke-linecap="round" stroke="none" fill-rule="nonzero" stroke-linejoin="round" stroke-width="1.718" fill="#000000" marker-start="none" marker-end="none" stroke-miterlimit="79.8403193612775"/>
   </g>
   <g id="Layer 2">
    <path d="M 148.849,153.057 L 148.849,194.551 L 167.451,194.551 L 167.451,153.057 L 148.849,153.057 Z M 198.667,153.057 L 198.667,194.551 L 200.99,194.551 C 207.572,194.551 212.999,196.177 217.27,199.432 L 217.27,153.057 L 198.667,153.057 Z M 248.483,206.373 L 248.483,253.969 L 267.094,253.969 L 267.094,206.373 L 248.483,206.373 Z M 99.027,207.13 L 99.027,253.969 L 117.638,253.969 L 117.638,207.13 L 99.027,207.13 Z M 148.849,207.13 L 148.846,234.288 C 149.169,233.914 149.509,233.551 149.867,233.195 C 154.029,229.035 159.665,226.956 166.777,226.956 L 167.451,226.956 L 167.451,207.13 L 148.849,207.13 Z M 198.667,207.13 L 198.667,226.956 L 200.986,226.956 C 205.216,226.956 208.568,225.947 211.053,223.937 C 213.266,222.124 214.372,219.878 214.372,217.192 C 214.372,214.511 213.234,212.194 210.951,210.248 C 208.47,208.169 205.147,207.13 200.986,207.13 L 198.667,207.13 Z M 200.986,239.533 L 198.667,239.533 L 198.667,254.323 L 217.27,254.323 L 217.27,234.481 C 212.947,237.848 207.522,239.533 200.986,239.533 Z M 160.228,241.847 C 158.818,243.19 158.116,244.866 158.116,246.877 C 158.116,248.888 158.885,250.632 160.43,252.108 C 161.974,253.584 164.086,254.323 166.769,254.323 L 167.451,254.323 L 167.451,239.533 L 166.771,239.533 C 164.019,239.533 161.837,240.304 160.228,241.847 Z M 148.849,259.543 L 148.846,259.568 C 148.846,259.569 148.847,259.57 148.848,259.571 L 148.849,307.286 L 167.451,307.286 L 167.451,266.901 L 166.774,266.901 C 159.663,266.901 154.029,264.823 149.867,260.662 C 149.512,260.306 149.173,259.942 148.848,259.571 L 148.849,259.543 Z M 198.667,266.901 L 198.667,307.286 L 217.27,307.286 L 217.27,266.901 L 198.667,266.901 Z" stroke="none" fill="#767676" stroke-width="1.173" stroke-linejoin="miter" stroke-linecap="round" marker-start="none" marker-end="none" stroke-miterlimit="79.8403193612775"/>
   </g>
   <g id="Layer 3">
    <path d="M 173.752,138.044 L 173.752,226.956 L 192.363,226.956 L 192.363,138.044 L 173.752,138.044 Z M 123.942,177.222 L 123.942,194.561 L 142.544,194.561 L 142.544,177.222 L 123.942,177.222 Z M 223.575,177.222 L 223.575,254.338 L 242.177,254.338 L 242.177,177.222 L 223.575,177.222 Z M 123.942,207.13 L 123.942,283.121 L 142.544,283.121 L 142.544,207.13 L 123.942,207.13 Z M 173.752,239.533 L 173.752,322.299 L 192.363,322.299 L 192.363,239.533 L 173.752,239.533 Z M 223.575,266.824 L 223.575,283.121 L 242.177,283.121 L 242.177,266.824 L 223.575,266.824 Z" stroke="none" fill="#000000" stroke-width="1.173" stroke-linejoin="miter" stroke-linecap="round" marker-start="none" marker-end="none" stroke-miterlimit="79.8403193612775"/>
   </g>
  </g>
 </g>
</svg>
